<svg xmlns="http://www.w3.org/2000/svg" width="256" height="310" preserveAspectRatio="xMidYMid"><path fill="#8C3123" d="M20.62 53.7L0 64v181.02l20.62 10.25.13-.15V53.82l-.13-.13"/><path fill="#E05243" d="M131 229L20.62 255.27V53.7L131 79.4V229"/><path fill="#8C3123" d="M81.18 187.87l46.82 5.96.3-.68.25-76.77-.55-.6-46.82 5.87v66.22M128 229.3l107.37 26.03.17-.27V53.86l-.18-.17L128 79.67V229.3"/><path fill="#E05243" d="M174.83 187.87L128 193.83v-78.05l46.83 5.87v66.22"/><path fill="#5E1F18" d="M174.83 89.63L128 98.17l-46.82-8.54 46.76-12.25 46.9 12.25"/><path fill="#F2B0A9" d="M174.83 219.8L128 211.2l-46.82 8.6 46.76 13.05 46.9-13.05"/><path fill="#8C3123" d="M81.18 89.63L128 78.05l.38-.12V.3L128 0 81.18 23.4v66.23"/><path fill="#E05243" d="M174.83 89.63L128 78.05V0l46.83 23.4v66.23"/><path fill="#8C3123" d="M128 309.43l-46.83-23.4V219.8L128 231.4l.7.77-.2 75.9-.5 1.36"/><path fill="#E05243" d="M128 309.43l46.82-23.4V219.8L128 231.4v78.03M235.37 53.7L256 64v181.02l-20.63 10.3V53.7"/></svg>