<svg xmlns="http://www.w3.org/2000/svg" width="256" height="256" preserveAspectRatio="xMidYMid"><path fill="#00AEEF" d="M213.56 256H42.44C19 256 0 237 0 213.56V42.44C0 19 19 0 42.44 0h171.12C237 0 256 19 256 42.44v171.12C256 237 237 256 213.56 256"/><path fill="#fff" d="M131.02 107.8c-13.32 0-24.9 7.48-30.75 18.48-5.83-11-17.42-18.5-30.75-18.5-7.82 0-15.05 2.6-20.9 6.97V85.42c-.06-3.78-3.15-6.82-6.95-6.82-3.8 0-6.86 3.04-6.95 6.82v57.75c.32 18.96 15.77 34.23 34.8 34.23 13.33 0 24.92-7.5 30.75-18.5 5.84 11 17.43 18.5 30.75 18.5 19.22 0 34.8-15.58 34.8-34.81 0-19.24-15.58-34.8-34.8-34.8m-61.5 55.66c-11.53 0-20.9-9.34-20.9-20.87 0-11.54 9.37-20.88 20.9-20.88s20.87 9.34 20.87 20.87c0 11.52-9.35 20.86-20.88 20.86m61.5 0c-11.53 0-20.9-9.34-20.9-20.88 0-11.52 9.37-20.86 20.9-20.86s20.88 9.34 20.88 20.87c0 11.52-9.35 20.86-20.88 20.86M219.83 165.75l-18.92-23.2 18.95-23.26c2.4-3.08 1.7-7.36-1.6-9.63-3.3-2.3-7.95-1.7-10.5 1.26l-16.3 19.97-16.3-19.97c-2.52-2.97-7.2-3.56-10.5-1.27-3.3 2.28-4 6.56-1.58 9.63l18.9 23.24-18.9 23.2c-2.4 3.08-1.72 7.35 1.6 9.64 3.3 2.28 7.96 1.7 10.5-1.28l16.27-19.94 16.28 19.94c2.56 2.98 7.2 3.56 10.5 1.28 3.32-2.3 4-6.56 1.6-9.63"/></svg>