<svg xmlns="http://www.w3.org/2000/svg" width="512" height="155" preserveAspectRatio="xMidYMid"><path fill="#385C9A" d="M21.34 73.4H.9V48.25h21.02v-6.4C21.92 10.93 36 .16 63.74.16c7.52 0 13.3 1.2 17.74 2l-2.13 24.74c-2.9-1-5.78-1.6-10.98-1.6-8.87 0-12.34 6.38-12.34 16.56v6.4H80.7V73.4H56.03v78.85h-34.7V73.4"/><path fill="#385C9A" d="M98.82 2.53h34.7v149.72H98.8V2.53zM163.2 4.93h34.7v26.35h-34.7V4.93zM163.2 48.25h34.7v104h-34.7v-104zM302.16 78c-6.36-4-12.72-5.8-21-5.8-15.04 0-26.6 10.78-26.6 28.75 0 16.57 13.5 27.35 28.52 27.35 7.9 0 15.8-1.8 21.6-5l.76 26.76c-8.68 3-19.08 4.6-28.33 4.6-33.15 0-58.4-19.97-58.4-54.3 0-34.54 25.25-54.5 58.4-54.5 10.4 0 19.66 1.8 27.57 5.78L302.17 78M319.9 2.53h34.7v89.44h.37l28.9-43.72h37.98l-34.9 47.7 37.8 56.3H382.7l-27.75-51.5h-.38v51.5h-34.7V2.53"/><path fill="#DB2176" d="M509.35 77c-3.85-1.2-7.7-1.2-11.75-1.2-16.2 0-25.25 12.17-25.25 32.54v43.9h-34.7v-104h31.6v19.18h.4c5.97-13.18 14.65-21.57 29.68-21.57 4.05 0 8.3.6 11.76 1.2L509.34 77"/></svg>