<svg xmlns="http://www.w3.org/2000/svg" width="256" height="256"><defs><linearGradient id="a" x1="50%" x2="50%" y1="0%" y2="100%"><stop stop-color="#fff" offset="0%"/><stop stop-color="#F3F3F3" offset="100%"/></linearGradient><linearGradient id="b" x1="50%" x2="50%" y1="3.298%" y2="100%"><stop stop-color="#DCDCDC" offset="0%"/><stop stop-color="#D2D2D2" offset="100%"/></linearGradient><filter id="c" width="200%" height="200%" x="-50%" y="-50%" filterUnits="objectBoundingBox"><feOffset dy="1" in="SourceAlpha" result="shadowOffsetInner1"/><feGaussianBlur stdDeviation="1.5" in="shadowOffsetInner1" result="shadowBlurInner1"/><feComposite in="shadowBlurInner1" in2="SourceAlpha" operator="arithmetic" k2="-1" k3="1" result="shadowInnerInner1"/><feColorMatrix values="0 0 0 0 0 0 0 0 0 0 0 0 0 0 0 0 0 0 0.248847939 0" in="shadowInnerInner1" result="shadowMatrixInner1"/><feMerge><feMergeNode in="SourceGraphic"/><feMergeNode in="shadowMatrixInner1"/></feMerge></filter><filter id="d" width="200%" height="200%" x="-50%" y="-50%" filterUnits="objectBoundingBox"><feOffset dy="1" in="SourceAlpha" result="shadowOffsetInner1"/><feGaussianBlur stdDeviation="1.5" in="shadowOffsetInner1" result="shadowBlurInner1"/><feComposite in="shadowBlurInner1" in2="SourceAlpha" operator="arithmetic" k2="-1" k3="1" result="shadowInnerInner1"/><feColorMatrix values="0 0 0 0 0 0 0 0 0 0 0 0 0 0 0 0 0 0 0.248847939 0" in="shadowInnerInner1" result="shadowMatrixInner1"/><feMerge><feMergeNode in="SourceGraphic"/><feMergeNode in="shadowMatrixInner1"/></feMerge></filter></defs><g fill="none"><rect width="247.435" height="247.435" x="4.464" y="4.464" fill="url(#a)" rx="28"/><path fill="url(#b)" d="M46.7 8.02c-21.4 0-38.82 17.4-38.82 38.82v162.3c0 21.4 17.42 38.83 38.82 38.83H209c21.42 0 38.83-17.42 38.83-38.82V46.85C247.83 25.42 230.43 8 209 8H46.7zM209 255.62H46.7c-25.62 0-46.47-20.85-46.47-46.47V46.85C.23 21.2 21.08.34 46.7.34H209c25.64 0 46.5 20.86 46.5 46.5v162.3c0 25.62-20.86 46.47-46.5 46.47z"/><path fill="#1D66D8" d="M116.25 128c0 19.44-15.76 35.2-35.2 35.2-19.45 0-35.2-15.76-35.2-35.2 0-19.45 15.75-35.22 35.2-35.22 19.44 0 35.2 15.77 35.2 35.2" filter="url(#c)"/><path fill="#FB0A84" d="M209.88 128c0 19.44-15.76 35.2-35.2 35.2-19.45 0-35.22-15.76-35.22-35.2 0-19.45 15.77-35.22 35.2-35.22 19.46 0 35.22 15.77 35.22 35.2" filter="url(#d)"/></g></svg>