<svg xmlns="http://www.w3.org/2000/svg" width="256" height="256" xmlns:xlink="http://www.w3.org/1999/xlink" preserveAspectRatio="xMidYMid"><defs><path id="a" d="M253.33 128h-58.66V61.33L132.57.8c-.5-.5-1.16-.8-1.9-.8C129.2 0 128 1.2 128 2.67v58.66H61.33L.8 123.43c-.5.5-.8 1.16-.8 1.9C0 126.8 1.2 128 2.67 128h58.66v66.67l62.1 60.53c.5.5 1.16.8 1.9.8 1.47 0 2.67-1.2 2.67-2.67v-58.66h66.67l60.53-62.1c.5-.5.8-1.16.8-1.9 0-1.47-1.2-2.67-2.67-2.67z"/><linearGradient id="c" x1="56.867%" x2="46.904%" y1="47.539%" y2="57.776%"><stop stop-color="#E88C22" offset="0%"/><stop stop-color="#FCBB29" stop-opacity="0" offset="100%"/></linearGradient><linearGradient id="d" x1="50%" x2="58.293%" y1="40.547%" y2="48.587%"><stop stop-color="#5E8235" offset="0%"/><stop stop-color="#8CC251" stop-opacity="0" offset="100%"/></linearGradient></defs><mask id="b"><use xlink:href="#a"/></mask><use xlink:href="#a"/><g mask="url(#b)"><path fill="#FCBB29" d="M.8 123.44c-.5.48-.8 1.15-.8 1.9C0 126.8 1.2 128 2.67 128H128V61.33H61.33L.8 123.43z"/><path fill="#FC9723" d="M128 128V61.33H61.33L128 128z"/><path fill="#fff" fill-opacity=".2" d="M61.33 61.33L.8 123.43c-.5.5-.8 1.16-.8 1.9 0 .24.08.46.13.67.14-.45.32-.9.64-1.23l60.56-62.1H128v-1.34H61.33z"/><path fill="#3E2723" fill-opacity=".1" d="M128 128v-1.33L62.67 61.33h-1.34L128 128z"/><path fill="url(#c)" d="M119.97 59.64l-9.62 4.1L56.13 6.43 61.4.9l58.57 58.74z" opacity=".8" transform="translate(0 60.333)"/></g><g mask="url(#b)"><path fill="#8CC251" d="M123.44 255.2c.48.5 1.15.8 1.9.8 1.46 0 2.66-1.2 2.66-2.67V128H61.33v66.67l62.1 60.53z"/><path fill="#1D9A59" d="M61.33 128v66.67L128 128H61.33z"/><path fill="#3E2723" fill-opacity=".1" d="M125.33 254.67c-.74 0-1.4-.3-1.9-.8L62 194l-.67.67 62.1 60.53c.5.5 1.16.8 1.9.8 1.47 0 2.67-1.2 2.67-2.67V252c0 1.47-1.2 2.67-2.67 2.67z"/><path fill="url(#d)" d="M59.07 8.97l2.23 5.2L5.97 72.48.7 67.34 59.08 8.97z" opacity=".7" transform="translate(61.333 128)"/><path d="M128 129.33h-1.33l-65.34 65.34V196L128 129.33z" opacity=".2"/></g><g mask="url(#b)"><path fill="#4B87F1" d="M255.2 132.56c.5-.48.8-1.15.8-1.9 0-1.46-1.2-2.66-2.67-2.66H128v66.67h66.67l60.53-62.1z"/><path fill="#3367D6" d="M128 128v66.67h66.67L128 128z"/><path fill="#263238" fill-opacity=".2" d="M194.67 194.67l60.53-62.1c.5-.5.8-1.16.8-1.9 0-.24-.08-.46-.13-.67-.14.45-.32.9-.64 1.23l-60.56 62.1H128v1.34h66.67z"/><path fill="#263238" fill-opacity=".1" d="M128 128v1.33l65.33 65.34h1.34L128 128z"/><path fill="#fff" fill-opacity=".2" d="M255.87 131.33c.05-.2.13-.42.13-.66 0-1.47-1.2-2.67-2.67-2.67H128v1.33h125.33c1.23 0 2.24.86 2.54 2z"/></g><g mask="url(#b)"><path fill="#D8443C" d="M132.56.8c-.48-.5-1.15-.8-1.9-.8C129.2 0 128 1.2 128 2.67V128h66.67V61.33L132.57.8z"/><path fill="#fff" fill-opacity=".2" d="M132.56.8c-.48-.5-1.15-.8-1.9-.8C129.2 0 128 1.2 128 2.67V4c0-1.47 1.2-2.67 2.67-2.67.74 0 1.4.3 1.9.8l60.74 59.23 1.37-.03L132.57.8z"/><path fill="#AB1657" d="M194.67 128V61.33l-19.22 19.22L128 128h66.67z"/><path fill="#fff" d="M128 126.67h1.33l65.34-65.34-1.36.03-65.3 65.3z" opacity=".2"/><path fill="#3E2723" fill-opacity=".1" d="M128 126.67h66.67V128H128z"/></g><path fill="#F1F1F1" d="M120 120l8-18.67 8 18.67 18.67 8-18.67 8-8 18.67-8-18.67-18.67-8 18.67-8z" mask="url(#b)"/></svg>