<?xml version="1.0" standalone="no"?>
<!DOCTYPE svg PUBLIC "-//W3C//DTD SVG 20010904//EN"
 "http://www.w3.org/TR/2001/REC-SVG-20010904/DTD/svg10.dtd">
<svg version="1.0" xmlns="http://www.w3.org/2000/svg"
 width="16.000000pt" height="16.000000pt" viewBox="0 0 16.000000 16.000000"
 preserveAspectRatio="xMidYMid meet">
<metadata>
Created by potrace 1.11, written by Peter Selinger 2001-2013
</metadata>
<g transform="translate(0.000000,16.000000) scale(0.001563,-0.001563)"
fill="#000000" stroke="none">
<path d="M4905 9949 c-333 -13 -625 -57 -999 -150 -222 -56 -474 -141 -721
-244 -103 -43 -446 -222 -576 -300 -693 -419 -1279 -1016 -1687 -1722 -395
-683 -617 -1448 -652 -2246 -20 -459 25 -886 145 -1392 90 -381 277 -846 493
-1225 790 -1388 2221 -2296 3827 -2431 176 -14 579 -14 750 0 623 54 1217 218
1760 486 1117 552 1977 1508 2405 2675 114 310 175 541 234 877 92 523 92
1104 0 1626 -58 330 -126 586 -236 882 -416 1122 -1232 2055 -2278 2605 -213
112 -326 163 -535 243 -227 87 -332 119 -570 178 -325 79 -617 123 -885 134
-74 3 -171 7 -215 9 -44 1 -161 -1 -260 -5z m664 -1069 c47 -5 169 -19 271
-30 417 -48 697 -108 1049 -226 550 -185 915 -452 1039 -760 l27 -69 3 -2650
c2 -2466 1 -2655 -14 -2715 -39 -146 -103 -251 -232 -377 -47 -46 -88 -83 -92
-83 -4 0 -22 -13 -40 -29 -60 -52 -389 -238 -434 -245 -6 -1 -15 -4 -21 -8
-53 -33 -391 -147 -545 -183 -8 -2 -29 -8 -47 -14 -47 -14 -441 -87 -570 -106
-274 -39 -625 -58 -963 -52 -335 6 -446 15 -825 64 -338 43 -835 178 -1100
298 -16 8 -68 31 -115 53 -72 32 -251 138 -293 172 -6 5 -46 36 -88 69 -83 64
-170 158 -203 218 -12 21 -26 43 -32 48 -15 14 -51 103 -69 171 -13 51 -15
375 -15 2694 0 2304 2 2643 15 2693 58 224 283 450 625 631 144 75 240 115
448 185 389 131 618 175 1287 249 111 13 830 14 934 2z"/>
</g>
</svg>
