<?xml version="1.0" standalone="no"?>
<!DOCTYPE svg PUBLIC "-//W3C//DTD SVG 20010904//EN"
 "http://www.w3.org/TR/2001/REC-SVG-20010904/DTD/svg10.dtd">
<svg version="1.0" xmlns="http://www.w3.org/2000/svg"
 width="16.000000pt" height="16.000000pt" viewBox="0 0 16.000000 16.000000"
 preserveAspectRatio="xMidYMid meet">
<metadata>
Created by potrace 1.11, written by Peter Selinger 2001-2013
</metadata>
<g transform="translate(0.000000,16.000000) scale(0.003200,-0.003200)"
fill="#000000" stroke="none">
<path d="M2471 4403 c-14 -3 -163 -141 -375 -347 -193 -188 -403 -393 -467
-455 -65 -61 -122 -125 -129 -141 -17 -40 -5 -91 26 -121 25 -24 28 -24 287
-29 l262 -5 3 -116 c3 -111 2 -116 -20 -127 -41 -20 -117 -52 -123 -52 -4 0
-21 -6 -38 -14 -18 -8 -66 -29 -107 -46 -41 -17 -89 -38 -107 -46 -17 -8 -35
-14 -40 -14 -4 -1 -26 -9 -48 -20 -22 -11 -44 -19 -48 -20 -5 0 -23 -6 -40
-14 -18 -8 -66 -29 -107 -46 -41 -17 -84 -35 -95 -40 -11 -5 -49 -21 -85 -35
-36 -15 -79 -33 -97 -41 -17 -8 -34 -14 -38 -14 -4 0 -21 -6 -38 -14 -18 -8
-66 -29 -107 -46 -41 -17 -89 -38 -107 -46 -17 -8 -35 -14 -40 -14 -4 0 -19
-6 -33 -13 -14 -8 -41 -19 -60 -26 -54 -18 -90 -35 -90 -42 0 -4 39 -22 88
-42 165 -68 287 -118 319 -133 17 -7 34 -14 38 -14 4 0 21 -6 38 -14 18 -8 66
-29 107 -46 41 -17 89 -38 107 -46 17 -8 34 -14 38 -14 4 0 21 -7 38 -15 18
-7 84 -35 147 -60 63 -26 129 -53 145 -60 17 -8 82 -35 145 -60 63 -25 124
-50 135 -55 11 -5 54 -23 95 -40 41 -17 89 -38 107 -46 17 -8 34 -14 38 -14 4
0 21 -7 38 -14 37 -17 219 -93 260 -108 18 -7 36 -7 55 0 40 15 222 91 259
108 17 7 34 14 38 14 4 0 21 6 38 14 18 8 66 29 107 46 41 17 84 35 95 40 11
5 72 30 135 55 63 25 129 52 145 60 17 7 82 34 145 60 63 25 129 53 147 60 17
8 34 15 38 15 3 0 25 9 48 19 23 10 71 31 107 46 36 14 79 33 97 41 17 8 34
14 38 14 4 0 21 7 38 14 32 15 154 65 320 133 48 20 87 38 87 42 0 7 -36 24
-90 42 -19 7 -46 18 -60 26 -14 7 -29 13 -33 13 -5 0 -23 6 -40 14 -18 8 -66
29 -107 46 -41 17 -89 38 -107 46 -17 8 -34 14 -38 14 -3 0 -25 8 -48 19 -23
10 -73 31 -112 46 -66 26 -192 80 -262 111 -17 8 -35 14 -40 14 -4 1 -26 9
-48 20 -22 11 -44 19 -48 20 -5 0 -23 6 -40 14 -18 8 -66 29 -107 46 -41 17
-89 38 -107 46 -17 8 -34 14 -37 14 -3 0 -28 10 -56 22 l-50 22 0 128 0 128
215 0 c234 0 267 6 298 53 9 15 17 43 17 63 0 43 -3 46 -410 435 -146 139
-326 313 -401 386 -119 115 -187 167 -216 162 -4 -1 -19 -4 -32 -6z"/>
<path d="M945 2095 c-16 -7 -64 -28 -105 -45 -41 -17 -84 -35 -95 -40 -11 -5
-33 -14 -50 -20 -49 -18 -85 -35 -85 -40 0 -5 18 -13 120 -55 36 -14 74 -30
85 -35 11 -5 76 -32 145 -60 69 -28 139 -58 157 -66 17 -8 34 -14 38 -14 4 0
21 -6 38 -14 18 -8 88 -38 157 -66 69 -28 134 -55 145 -60 11 -5 49 -21 85
-35 36 -14 74 -30 85 -35 11 -5 76 -32 145 -60 69 -28 139 -58 157 -66 17 -8
34 -14 38 -14 4 0 21 -6 38 -14 18 -8 88 -38 157 -66 69 -28 139 -58 157 -66
17 -8 34 -14 38 -14 3 0 27 -10 53 -22 59 -27 85 -27 144 0 26 12 50 22 53 22
4 0 21 6 38 14 18 8 88 38 157 66 69 28 139 58 157 66 17 8 34 14 38 14 4 0
21 6 38 14 18 8 61 27 97 41 36 15 84 36 107 46 23 10 45 19 48 19 6 0 51 19
132 56 17 8 34 14 38 14 4 0 21 6 38 14 18 8 88 38 157 66 69 28 139 58 157
66 17 8 34 14 38 14 4 0 21 6 38 14 18 8 61 27 97 41 36 15 84 36 107 46 23
10 45 19 48 19 4 0 21 6 38 14 18 8 61 27 97 41 104 42 120 50 120 55 0 5 -36
22 -85 40 -16 6 -39 15 -50 20 -11 5 -49 21 -85 36 -36 14 -84 35 -108 45 -39
18 -45 18 -75 5 -38 -18 -84 -37 -197 -82 -47 -19 -99 -41 -117 -49 -17 -8
-34 -15 -38 -15 -4 0 -21 -6 -38 -14 -18 -8 -61 -27 -97 -41 -36 -15 -78 -33
-95 -40 -16 -8 -59 -26 -95 -40 -36 -14 -79 -33 -97 -41 -17 -8 -34 -14 -38
-14 -4 0 -21 -6 -38 -14 -18 -8 -66 -29 -107 -46 -41 -17 -89 -38 -107 -46
-17 -8 -35 -14 -40 -14 -4 -1 -26 -9 -48 -20 -22 -11 -44 -19 -48 -20 -5 0
-23 -6 -40 -14 -18 -8 -66 -29 -107 -46 -41 -17 -89 -38 -107 -46 -39 -18 -67
-18 -106 0 -18 8 -66 29 -107 46 -41 17 -89 38 -107 46 -17 8 -35 14 -40 14
-4 1 -26 9 -48 20 -22 11 -44 19 -48 20 -5 0 -23 6 -40 14 -18 8 -66 29 -107
46 -41 17 -89 38 -107 46 -17 8 -34 14 -38 14 -4 0 -21 6 -38 14 -18 8 -61 26
-97 41 -36 14 -74 30 -85 35 -24 11 -69 30 -185 76 -47 19 -99 41 -117 49 -17
8 -34 15 -38 15 -4 0 -21 6 -38 14 -18 8 -66 29 -107 46 -41 17 -89 38 -107
46 -37 17 -31 17 -68 -1z"/>
<path d="M947 1600 c-9 -6 -56 -27 -105 -46 -48 -19 -100 -41 -117 -48 -16 -8
-41 -17 -55 -21 -14 -4 -33 -13 -44 -21 -17 -11 -15 -14 27 -33 25 -12 49 -21
52 -21 3 0 25 -9 48 -19 23 -10 71 -31 107 -46 36 -14 79 -33 97 -41 17 -8 34
-14 38 -14 3 0 25 -8 48 -19 23 -10 74 -31 112 -46 39 -15 75 -31 80 -35 6 -4
21 -11 35 -15 14 -4 39 -13 55 -20 17 -8 59 -26 95 -40 36 -14 79 -33 97 -41
17 -8 34 -14 38 -14 3 0 25 -9 48 -19 23 -10 71 -31 107 -46 36 -14 79 -33 97
-41 17 -8 34 -14 38 -14 4 0 21 -6 38 -14 18 -8 61 -27 97 -41 36 -15 84 -36
107 -46 23 -10 46 -19 50 -19 4 -1 26 -9 48 -20 22 -11 44 -19 48 -20 5 0 23
-6 40 -14 18 -8 80 -35 140 -60 l107 -45 108 45 c59 25 121 52 139 60 17 8 35
14 40 14 4 1 26 9 48 20 22 11 44 19 48 20 4 0 27 9 50 19 23 10 71 31 107 46
36 14 79 33 97 41 17 8 34 14 38 14 4 0 21 6 38 14 18 8 61 27 97 41 36 15 84
36 107 46 23 10 45 19 48 19 4 0 21 6 38 14 18 8 61 27 97 41 36 14 79 33 97
41 17 8 34 14 38 14 3 0 32 12 63 26 100 46 120 54 129 54 4 1 26 9 48 20 22
11 44 19 48 20 5 0 23 6 40 14 18 8 61 27 97 41 36 15 84 36 107 46 23 10 45
19 48 19 3 0 27 9 52 21 42 19 44 22 27 33 -11 7 -37 19 -59 26 -22 7 -44 16
-50 19 -5 4 -65 29 -132 55 -120 48 -121 48 -155 32 -18 -10 -62 -29 -98 -43
-36 -14 -84 -34 -107 -44 -23 -11 -46 -19 -50 -19 -4 0 -20 -6 -35 -14 -14 -8
-43 -19 -65 -26 -21 -7 -42 -16 -48 -20 -5 -4 -41 -20 -80 -35 -38 -15 -83
-33 -100 -41 -16 -7 -59 -25 -95 -39 -36 -14 -84 -35 -107 -46 -24 -10 -49
-19 -56 -19 -7 0 -17 -4 -23 -9 -5 -5 -40 -21 -79 -36 -38 -15 -89 -36 -112
-46 -23 -11 -45 -19 -48 -19 -4 0 -21 -6 -38 -14 -38 -18 -84 -37 -197 -82
-47 -19 -99 -41 -117 -49 -40 -19 -49 -18 -98 5 -22 11 -44 19 -48 20 -5 0
-23 6 -40 14 -18 8 -66 29 -107 46 -41 17 -89 38 -107 46 -17 8 -34 14 -38 14
-4 0 -21 7 -38 15 -18 7 -84 35 -147 60 -63 26 -128 53 -145 60 -90 41 -125
55 -132 55 -4 1 -26 9 -48 20 -22 11 -44 19 -48 20 -9 0 -29 8 -129 54 -31 14
-60 26 -65 26 -4 1 -26 9 -48 20 -22 11 -44 19 -48 20 -5 0 -23 7 -40 14 -69
32 -233 98 -252 102 -11 2 -28 -1 -38 -6z"/>
<path d="M967 1114 c-6 -6 -220 -96 -314 -132 -24 -9 -43 -19 -43 -22 0 -3 30
-18 68 -34 37 -16 86 -37 109 -48 23 -10 45 -18 48 -18 4 0 21 -7 38 -15 18
-8 70 -30 117 -49 116 -46 161 -65 185 -76 11 -5 49 -21 85 -35 36 -15 79 -33
97 -41 17 -8 34 -14 38 -14 3 0 25 -9 48 -19 23 -10 71 -31 107 -46 36 -14 79
-33 97 -41 17 -8 34 -14 38 -14 4 0 21 -7 38 -15 18 -8 70 -30 117 -49 116
-46 161 -65 185 -76 11 -5 49 -21 85 -35 36 -15 79 -33 97 -41 17 -8 34 -14
38 -14 3 0 25 -9 48 -19 23 -10 71 -31 107 -45 36 -15 73 -31 82 -36 23 -13
53 -13 76 0 9 5 46 21 82 36 36 14 84 35 107 45 23 10 45 19 48 19 4 0 21 6
38 14 18 8 61 26 97 41 36 14 74 30 85 35 24 11 69 30 185 76 47 19 99 41 117
49 17 8 34 15 38 15 4 0 21 6 38 14 18 8 66 29 107 46 41 17 89 38 107 46 17
8 34 14 38 14 4 0 21 6 38 14 18 8 61 26 97 41 36 14 74 30 85 35 24 11 69 30
185 76 47 19 99 41 117 49 17 8 34 15 38 15 3 0 25 8 48 18 23 11 72 32 110
48 37 16 67 31 67 34 0 3 -19 12 -42 21 -79 30 -293 119 -310 129 -12 7 -24 7
-35 0 -10 -5 -67 -30 -128 -54 -207 -84 -410 -167 -430 -176 -11 -5 -76 -32
-145 -60 -69 -28 -134 -55 -145 -60 -26 -12 -231 -96 -405 -166 -74 -30 -144
-59 -155 -64 -11 -5 -41 -18 -68 -29 l-47 -20 -48 20 c-26 11 -56 24 -67 29
-11 5 -81 34 -155 64 -174 70 -379 154 -405 166 -11 5 -76 32 -145 60 -69 28
-134 55 -145 60 -11 5 -81 34 -155 64 -250 100 -385 156 -402 166 -21 12 -23
12 -31 4z"/>
</g>
</svg>
