<?xml version="1.0" standalone="no"?>
<!DOCTYPE svg PUBLIC "-//W3C//DTD SVG 20010904//EN"
 "http://www.w3.org/TR/2001/REC-SVG-20010904/DTD/svg10.dtd">
<svg version="1.0" xmlns="http://www.w3.org/2000/svg"
 width="16.000000pt" height="16.000000pt" viewBox="0 0 16.000000 16.000000"
 preserveAspectRatio="xMidYMid meet">
<metadata>
Created by potrace 1.11, written by Peter Selinger 2001-2013
</metadata>
<g transform="translate(0.000000,16.000000) scale(0.003200,-0.003200)"
fill="#000000" stroke="none">
<path d="M2458 4396 c-45 -24 -68 -42 -61 -49 3 -4 2 -7 -4 -7 -5 0 -84 -73
-175 -162 -261 -257 -656 -641 -666 -647 -5 -3 -23 -25 -39 -49 -24 -33 -30
-50 -26 -75 5 -37 37 -75 73 -89 14 -5 134 -10 268 -10 218 0 242 -2 243 -16
1 -19 1 -188 0 -215 -1 -10 -5 -16 -10 -13 -5 4 -11 3 -13 -1 -1 -5 -28 -18
-58 -30 -30 -12 -68 -28 -85 -34 -16 -7 -32 -13 -35 -14 -3 -1 -18 -7 -33 -13
-158 -66 -225 -92 -235 -92 -7 0 -12 -5 -12 -10 0 -6 -3 -9 -7 -8 -5 1 -21 -5
-38 -12 -16 -7 -34 -12 -39 -11 -5 1 -12 -2 -15 -6 -5 -7 -243 -108 -276 -117
-13 -4 -78 -31 -139 -59 -27 -12 -52 -22 -55 -23 -11 -2 -46 -16 -98 -40 -28
-13 -56 -24 -60 -24 -5 0 -29 -10 -54 -22 -24 -11 -50 -21 -56 -21 -7 0 -13
-4 -13 -9 0 -4 -3 -7 -7 -6 -5 1 -26 -6 -48 -16 -22 -10 -44 -19 -50 -20 -32
-6 -35 -19 -10 -32 15 -8 31 -14 36 -14 5 0 32 -11 61 -24 48 -21 85 -36 98
-41 6 -2 0 0 198 -82 85 -34 158 -63 163 -63 5 0 9 -5 9 -12 0 -6 3 -9 6 -5 3
3 42 -10 87 -29 45 -19 87 -34 94 -34 7 0 13 -5 13 -10 0 -6 3 -9 8 -8 8 1 30
-6 89 -33 24 -10 45 -19 48 -19 4 0 25 -8 48 -19 23 -10 71 -30 107 -44 36
-14 81 -32 100 -40 19 -9 38 -15 43 -16 4 0 22 -8 40 -18 17 -9 34 -17 37 -18
11 -1 126 -49 136 -57 6 -4 14 -5 17 -1 4 3 7 1 7 -6 0 -7 4 -10 9 -6 5 3 12
1 16 -5 3 -5 15 -10 26 -10 10 0 19 -4 19 -8 0 -5 6 -9 13 -9 12 0 224 -86
305 -123 49 -23 61 -24 99 -8 15 6 30 12 33 13 3 1 18 7 33 13 15 7 39 15 52
18 14 3 25 10 25 15 0 5 6 9 14 9 8 0 52 16 98 36 46 19 88 37 93 38 6 2 21 8
35 14 14 5 65 27 115 47 49 20 95 41 102 47 7 6 13 8 13 5 0 -3 42 13 93 35
50 22 97 41 102 42 14 4 42 15 92 37 23 11 44 19 47 19 3 0 31 12 63 27 32 14
64 26 71 26 6 0 12 4 12 9 0 4 3 7 8 6 4 -1 21 5 37 12 17 7 32 14 35 15 3 1
14 5 25 10 11 4 45 18 75 30 30 12 64 26 75 30 11 5 23 7 28 7 4 -1 7 2 7 8 0
5 8 10 18 10 9 0 34 9 55 20 21 11 42 18 47 15 6 -4 10 -2 10 4 0 6 12 14 28
17 15 4 56 20 91 37 35 16 69 30 75 31 6 1 21 7 32 14 12 6 24 8 28 5 3 -3 6
-2 6 3 0 6 25 18 56 29 51 17 54 20 38 32 -10 8 -36 19 -56 25 -21 6 -38 14
-38 18 0 4 -6 7 -12 8 -21 1 -113 36 -119 45 -3 5 -8 8 -10 7 -5 -2 -33 8 -84
30 -22 9 -71 29 -110 45 -38 15 -94 38 -123 51 -29 13 -57 24 -61 24 -5 0 -22
6 -38 14 -34 18 -106 50 -113 51 -12 2 -105 40 -110 44 -3 4 -12 8 -20 10 -45
12 -80 27 -80 33 0 5 -7 8 -16 8 -8 0 -35 9 -60 20 -75 35 -99 43 -111 41 -7
-1 -13 3 -13 9 0 5 -4 10 -9 10 -5 0 -22 5 -38 12 -15 6 -30 12 -33 13 -3 1
-25 10 -50 21 -25 10 -48 18 -52 16 -5 -1 -8 3 -8 8 0 5 -3 10 -7 9 -5 -1 -18
2 -29 6 -21 6 -22 13 -22 135 l-1 128 218 0 c188 0 223 3 252 18 19 9 39 24
45 32 14 20 17 88 4 112 -10 18 -100 112 -100 104 0 -2 -11 8 -25 22 -14 14
-25 29 -25 34 0 6 -4 10 -9 10 -5 0 -51 40 -102 90 -52 49 -97 90 -101 90 -5
0 -8 7 -8 15 0 8 -4 15 -9 15 -4 0 -47 37 -93 83 -47 45 -159 152 -248 237
-90 85 -172 165 -184 177 -30 30 -87 63 -111 63 -11 0 -32 -7 -47 -14z"/>
<path d="M962 2098 c-7 -7 -12 -9 -12 -6 0 4 -26 -5 -57 -19 -79 -35 -106 -46
-119 -48 -6 -2 -35 -14 -64 -28 -30 -14 -57 -24 -62 -21 -4 3 -8 0 -8 -5 0 -6
-5 -10 -12 -8 -6 1 -14 -6 -16 -17 -2 -10 0 -16 5 -13 5 3 22 -1 38 -8 36 -17
346 -145 360 -149 6 -1 24 -9 40 -16 62 -27 93 -39 195 -80 58 -23 111 -47
119 -54 8 -6 16 -10 18 -8 3 2 7 2 21 -3 4 -2 17 -6 30 -10 12 -4 22 -12 22
-18 0 -6 3 -8 6 -5 5 6 30 -3 109 -37 17 -7 66 -27 110 -44 44 -18 89 -36 100
-41 11 -5 60 -25 108 -45 48 -20 100 -41 115 -47 15 -6 29 -12 32 -13 3 -1 16
-6 30 -12 41 -18 65 -26 73 -25 4 1 7 -3 7 -8 0 -5 3 -9 8 -8 4 1 25 -6 47
-16 22 -10 45 -19 50 -20 6 -2 24 -9 40 -16 17 -7 32 -14 35 -15 3 -1 18 -7
33 -13 16 -7 33 -12 38 -12 5 0 9 -5 9 -10 0 -6 3 -9 8 -8 4 1 30 -5 57 -14
54 -17 85 -20 85 -6 0 4 8 8 18 8 10 0 22 4 28 9 5 6 52 26 104 46 52 21 100
41 105 45 6 4 25 11 43 15 17 3 32 11 32 16 0 5 3 8 8 7 7 -1 30 6 67 23 11 4
61 24 110 44 50 20 99 40 110 45 39 19 80 33 88 32 4 -1 7 2 7 8 0 6 3 9 8 8
6 -2 211 78 307 121 22 10 63 26 90 37 28 10 53 23 57 28 4 6 8 8 8 3 0 -4 19
2 43 14 23 12 43 21 45 20 1 -1 19 6 40 15 20 9 42 17 47 18 6 2 33 13 60 25
28 13 55 24 60 25 6 1 36 14 69 29 32 15 64 27 70 27 7 0 16 4 22 8 11 10 101
44 110 42 4 -1 10 3 13 8 3 5 26 16 51 25 24 8 46 19 48 25 3 10 -23 23 -42
21 -5 0 -12 3 -15 8 -3 4 -19 13 -36 19 -90 34 -221 90 -226 98 -4 5 -12 5
-18 2 -6 -4 -11 -2 -11 3 0 6 -7 11 -15 11 -8 0 -15 -4 -15 -8 0 -4 -9 -8 -20
-9 -19 -2 -31 -6 -135 -53 -27 -12 -54 -23 -60 -25 -5 -1 -23 -7 -38 -13 -16
-7 -33 -12 -38 -12 -5 0 -9 -4 -9 -8 0 -5 -6 -9 -12 -9 -13 0 -278 -108 -348
-141 -19 -9 -39 -17 -45 -18 -5 -1 -47 -18 -93 -38 -45 -19 -86 -36 -90 -37
-7 -2 -37 -14 -114 -48 -26 -12 -51 -21 -55 -21 -5 -1 -26 -9 -48 -20 -22 -11
-48 -19 -57 -20 -10 0 -18 -3 -18 -8 0 -6 -35 -21 -80 -33 -8 -2 -17 -6 -20
-9 -3 -3 -54 -25 -115 -49 -60 -24 -114 -48 -118 -52 -5 -4 -52 11 -105 33
-137 56 -147 60 -148 56 0 -2 -8 3 -17 11 -10 7 -17 11 -17 7 0 -4 -20 5 -45
19 -25 13 -49 24 -53 23 -4 0 -24 6 -44 15 -57 25 -108 46 -116 47 -4 1 -12 6
-19 12 -7 5 -17 7 -23 3 -5 -3 -10 -1 -10 4 0 6 -5 11 -10 11 -6 0 -29 9 -53
19 -23 10 -78 33 -122 51 -44 18 -93 38 -110 45 -100 41 -143 59 -170 71 -70
29 -497 204 -499 204 -1 0 -7 -5 -14 -12z"/>
<path d="M952 1602 c-11 -7 -27 -15 -34 -16 -7 -2 -26 -8 -41 -14 -16 -7 -33
-12 -38 -12 -5 0 -9 -5 -9 -11 0 -5 -4 -8 -9 -4 -5 3 -12 1 -15 -4 -3 -5 -22
-12 -41 -15 -19 -4 -35 -11 -35 -16 0 -6 -8 -10 -18 -10 -10 0 -28 -7 -40 -16
-12 -8 -22 -12 -22 -8 0 3 -6 2 -12 -4 -7 -6 -16 -11 -20 -11 -18 -2 -11 -16
10 -19 12 -2 22 -8 22 -13 0 -5 3 -8 8 -7 4 1 18 -3 32 -9 104 -44 156 -65
165 -67 6 -1 32 -12 59 -24 28 -13 60 -25 73 -28 13 -4 23 -9 23 -13 0 -4 6
-8 13 -8 7 0 61 -21 121 -46 59 -26 112 -44 117 -41 5 3 9 1 9 -3 0 -13 80
-44 93 -37 7 4 9 4 5 -1 -7 -7 201 -99 290 -128 17 -6 32 -14 32 -19 0 -5 4
-7 8 -4 5 3 25 -4 45 -14 21 -11 38 -20 39 -19 6 1 152 -58 225 -92 24 -10 47
-19 53 -19 6 0 18 -4 28 -10 14 -8 58 -27 82 -35 15 -5 105 -43 155 -66 17 -7
35 -14 40 -15 6 0 28 -9 50 -19 22 -11 42 -19 45 -20 3 -1 17 -7 31 -13 27
-11 69 -6 69 8 0 5 8 7 18 6 9 -2 19 0 22 3 3 4 37 19 75 35 39 15 111 45 160
66 199 83 230 95 237 92 5 -1 8 2 8 8 0 5 9 10 19 10 11 0 23 5 26 10 4 6 10
8 15 5 5 -3 11 -1 15 5 4 6 11 8 16 5 5 -4 9 -1 9 4 0 6 9 11 20 11 11 0 20 5
20 11 0 5 4 8 9 4 5 -3 12 -1 15 4 3 5 18 12 33 16 15 3 45 15 68 24 22 10 96
41 165 69 69 28 143 59 165 68 22 10 42 18 45 19 3 1 16 6 30 12 28 13 60 25
75 29 6 1 44 18 87 37 42 20 79 33 82 30 3 -4 6 -1 6 6 0 6 6 11 13 10 6 -1
35 8 62 20 63 29 99 44 105 45 3 1 11 5 18 9 6 5 16 5 22 2 6 -3 10 -3 10 2 0
8 9 13 127 59 70 28 96 49 67 53 -8 1 -23 2 -34 3 -11 1 -20 5 -20 8 0 3 -15
11 -32 19 -18 7 -46 19 -63 26 -16 7 -66 27 -110 45 -44 17 -87 35 -95 39 -9
5 -27 1 -45 -8 -16 -10 -49 -23 -72 -31 -24 -7 -43 -17 -43 -22 0 -5 -5 -6
-10 -3 -6 4 -16 2 -23 -3 -20 -16 -185 -80 -191 -74 -3 3 -6 0 -6 -6 0 -7 -5
-12 -11 -12 -5 0 -29 -8 -52 -19 -65 -28 -81 -34 -89 -33 -5 1 -8 -3 -8 -9 0
-5 -4 -8 -8 -5 -5 3 -32 -7 -62 -21 -29 -14 -58 -26 -64 -27 -6 -1 -21 -7 -32
-14 -12 -6 -24 -8 -28 -5 -3 3 -6 1 -6 -5 0 -7 -7 -12 -15 -12 -9 0 -35 -10
-58 -21 -23 -12 -43 -21 -44 -21 -2 1 -20 -6 -40 -15 -21 -9 -44 -16 -50 -16
-7 0 -13 -4 -13 -9 0 -4 -7 -8 -15 -8 -8 0 -23 -4 -33 -10 -19 -11 -91 -41
-107 -46 -5 -1 -28 -10 -50 -20 -22 -10 -42 -18 -45 -19 -6 -2 -57 -22 -80
-32 -8 -3 -17 -7 -20 -8 -12 -4 -48 -19 -86 -36 -127 -56 -144 -60 -177 -44
-16 8 -33 15 -37 15 -4 0 -25 8 -46 17 -22 9 -41 17 -44 18 -3 0 -27 11 -54
23 -28 13 -60 25 -73 28 -13 4 -23 10 -23 15 0 5 -7 6 -15 3 -8 -4 -15 -1 -15
5 0 6 -8 11 -18 11 -10 0 -23 5 -30 12 -7 7 -12 9 -12 5 0 -4 -22 4 -50 18
-28 14 -50 22 -50 19 0 -4 -7 -1 -15 6 -8 7 -15 9 -15 4 0 -5 -4 -4 -8 2 -4 6
-20 16 -37 21 -16 6 -102 41 -190 78 -88 37 -176 73 -195 80 -19 7 -53 21 -75
31 -22 10 -46 19 -54 20 -7 1 -18 7 -24 13 -6 6 -17 11 -24 11 -7 0 -38 12
-70 27 -32 14 -64 25 -70 24 -7 -1 -13 3 -13 10 0 6 -6 9 -14 6 -7 -3 -17 -2
-22 3 -5 5 -57 29 -115 53 -95 39 -108 42 -127 29z"/>
<path d="M923 1095 c-28 -13 -54 -21 -57 -17 -3 3 -6 1 -6 -5 0 -6 -10 -13
-23 -17 -13 -3 -50 -18 -83 -32 -32 -15 -63 -28 -69 -29 -5 -2 -28 -10 -50
-19 l-40 -17 35 -16 c64 -28 117 -50 140 -58 3 -1 14 -5 25 -10 11 -5 55 -23
97 -41 42 -17 79 -29 82 -26 4 3 6 0 6 -6 0 -7 3 -11 8 -10 4 1 17 -3 28 -10
12 -6 24 -8 28 -5 3 3 6 1 6 -5 0 -7 3 -11 8 -10 6 1 34 -8 82 -29 8 -3 17 -7
20 -8 3 -1 16 -6 30 -13 14 -6 66 -27 115 -47 50 -20 101 -41 115 -48 14 -6
27 -11 30 -12 12 -4 278 -114 320 -132 19 -9 40 -17 45 -19 6 -1 64 -24 130
-52 147 -60 159 -65 165 -66 3 -1 10 -4 15 -8 6 -3 57 -25 115 -48 58 -23 109
-45 115 -48 5 -4 13 -7 18 -8 4 -1 9 -3 12 -4 3 -1 8 -3 13 -4 4 -1 25 -10 47
-20 73 -33 85 -36 85 -25 0 6 4 8 9 4 5 -3 12 -1 15 4 3 5 18 12 33 16 15 3
53 18 83 32 30 14 60 26 65 28 12 2 34 11 104 42 29 12 60 23 67 23 8 0 14 5
14 10 0 6 3 9 8 9 4 -1 23 4 42 12 19 7 38 12 43 11 4 -1 7 2 7 8 0 6 3 10 8
9 15 -2 52 14 52 23 0 5 4 7 9 4 7 -5 106 34 256 99 22 10 45 19 50 21 6 1 42
15 80 32 70 29 105 44 115 47 8 3 51 21 129 54 38 16 72 27 75 24 3 -4 6 -1 6
5 0 7 6 12 13 12 6 0 25 7 41 15 15 8 32 12 37 9 5 -3 9 -1 9 3 0 5 17 15 38
22 20 8 57 23 82 34 25 12 49 20 54 18 5 -1 12 2 15 6 7 10 98 46 105 41 2 -2
13 6 25 16 12 11 21 16 21 12 0 -4 10 -1 23 6 12 6 27 13 33 14 5 1 35 13 65
26 30 14 61 27 69 30 10 4 2 12 -25 23 -22 10 -46 18 -52 18 -7 0 -13 4 -13 9
0 4 -9 8 -19 8 -11 0 -23 4 -26 10 -3 5 -15 10 -26 10 -10 0 -19 5 -19 10 0 6
-10 10 -23 10 -13 0 -27 4 -33 8 -10 10 -124 56 -139 57 -5 1 -14 -2 -20 -6
-5 -4 -62 -28 -125 -53 -63 -26 -125 -51 -137 -56 -13 -6 -33 -14 -45 -19 -13
-4 -34 -13 -48 -19 -100 -45 -488 -204 -500 -205 -8 -1 -18 -6 -22 -12 -4 -5
-13 -10 -20 -10 -7 -1 -25 -6 -40 -13 -44 -19 -83 -35 -88 -37 -22 -7 -70 -28
-92 -40 -15 -9 -31 -16 -35 -17 -16 -1 -76 -25 -139 -55 -17 -8 -37 -16 -45
-17 -8 -2 -27 -9 -44 -16 -16 -7 -32 -14 -35 -15 -3 -1 -18 -7 -35 -14 -73
-31 -58 -33 -200 28 -78 34 -161 66 -167 64 -5 -2 -8 1 -8 7 0 5 -16 12 -35
16 -19 3 -35 10 -35 15 0 5 -3 8 -7 7 -5 -1 -21 4 -38 11 -16 6 -55 22 -85 34
-30 12 -58 26 -62 32 -4 5 -8 7 -8 3 0 -4 -21 2 -47 13 -27 11 -57 24 -68 29
-11 4 -36 15 -57 24 -20 9 -38 16 -41 16 -2 0 -22 8 -43 17 -22 9 -41 17 -44
18 -3 1 -18 7 -33 13 -16 7 -33 12 -38 12 -5 0 -9 5 -9 12 0 6 -3 9 -6 5 -5
-5 -147 50 -187 73 -10 6 -22 8 -27 5 -6 -4 -10 -1 -10 4 0 6 -5 11 -11 11 -6
0 -25 6 -42 14 -18 8 -72 31 -122 51 -49 20 -103 43 -120 50 -53 23 -59 23
-112 0z"/>
</g>
</svg>
